<?xml version="1.0" encoding="UTF-8" standalone="no"?>
<!-- Created with Inkscape (http://www.inkscape.org/) -->

<svg
   version="1.1"
   id="svg1"
   width="226.49695"
   height="226.49696"
   viewBox="0 0 226.49695 226.49696"
   sodipodi:docname="ct-inverted-logo.png"
   inkscape:version="0.0"
   inkscape:export-filename="caffeinated-tech.svg"
   inkscape:export-xdpi="96"
   inkscape:export-ydpi="96"
   xmlns:inkscape="http://www.inkscape.org/namespaces/inkscape"
   xmlns:sodipodi="http://sodipodi.sourceforge.net/DTD/sodipodi-0.dtd"
   xmlns="http://www.w3.org/2000/svg"
   xmlns:svg="http://www.w3.org/2000/svg">
  <defs
     id="defs1" />
  <sodipodi:namedview
     id="namedview1"
     pagecolor="#ffffff"
     bordercolor="#000000"
     borderopacity="0.25"
     inkscape:showpageshadow="2"
     inkscape:pageopacity="0.0"
     inkscape:pagecheckerboard="0"
     inkscape:deskcolor="#d1d1d1"
     showgrid="false"
     inkscape:zoom="1.8519594"
     inkscape:cx="79.915358"
     inkscape:cy="184.1293"
     inkscape:window-width="1870"
     inkscape:window-height="1016"
     inkscape:window-x="0"
     inkscape:window-y="0"
     inkscape:window-maximized="1"
     inkscape:current-layer="g1" />
  <g
     inkscape:groupmode="layer"
     inkscape:label="Image"
     id="g1"
     transform="translate(-41.790032,-65.527383)">
    <circle
       style="opacity:1;fill:#000000;fill-opacity:1;stroke:#000000;stroke-width:2"
       id="path2"
       cx="155.03851"
       cy="178.77586"
       r="112.24848"
       inkscape:export-filename="caffeinated-tech.svg"
       inkscape:export-xdpi="96"
       inkscape:export-ydpi="96" />
    <path
       id="circle2"
       style="opacity:1;fill:#f8d822;fill-opacity:1;stroke:none;stroke-width:2"
       d="m 178.13744,81.352645 c 0.14882,0.09204 0.19583,0.63924 0.10351,1.216797 -0.0924,0.577546 -0.35578,4.434747 -0.58594,8.572266 -0.49082,8.823327 -0.93651,13.766872 -1.30273,14.451172 -0.337,0.62968 -1.08823,0.61973 -5.97461,-0.0742 -5.17933,-0.73563 -7.40429,-0.73254 -8.34766,0.01 -0.89588,0.70472 -1.10905,1.36399 -2.12109,6.57422 -1.16603,6.00298 -1.27181,7.34425 -0.66992,8.51758 1.05319,2.05311 3.67471,2.63252 10.72851,2.36719 3.64076,-0.13694 5.20367,-0.0928 6.01954,0.16992 1.38624,0.44633 3.48106,2.01223 4.66796,3.48829 0.83206,1.03475 0.91947,1.32852 1,3.37305 0.16111,4.09022 -1.65996,9.78922 -6.54101,20.47264 -1.27589,2.79259 -2.54745,5.7211 -2.82617,6.50586 -0.47137,1.32719 -0.47351,1.45813 -0.043,1.88868 0.43055,0.43055 0.53251,0.38749 1.47656,-0.625 0.55822,-0.59867 2.71341,-3.31528 4.78906,-6.03711 4.05014,-5.31091 6.22036,-7.54307 7.86524,-8.08593 0.71819,-0.23702 2.065,-0.28647 4.41211,-0.16211 10.07264,0.53366 10.40326,0.53856 11.50976,0.17773 1.61649,-0.52714 3.35481,-1.80875 3.75196,-2.76757 0.50087,-1.20917 0.0472,-2.32289 -2.20313,-5.41602 -2.36583,-3.252 -2.63075,-3.74772 -2.43164,-4.54102 0.25061,-0.99849 3.69791,-3.73179 10.01172,-7.93946 4.76688,-3.17675 10.92919,-6.76758 11.61328,-6.76758 0.72747,0 1.29706,0.69525 3.66797,4.47852 4.71081,7.51703 10.70703,18.45009 10.70703,19.52345 0,1.58312 -5.53925,4.58195 -15.45508,8.36523 -2.57292,0.98167 -4.88894,1.78515 -5.14648,1.78515 -0.25755,0 -1.39886,-0.88351 -2.53516,-1.96288 l -2.0664,-1.96289 -2.44922,2.03906 c -3.85917,3.21197 -4.29388,3.42657 -6.91993,3.41796 -1.93566,-0.006 -2.82776,-0.2023 -6.57812,-1.44727 -2.38644,-0.79218 -4.91535,-1.52454 -5.61914,-1.62694 -1.61232,-0.23459 -3.37782,0.2299 -4.92578,1.29491 -1.80443,1.24148 -8.03588,9.06651 -13.01563,16.34375 -2.65847,3.88504 -3.43509,5.29676 -3.2207,5.85547 0.34425,0.89708 1.45326,0.43163 3.9668,-1.66602 3.20709,-2.67644 6.56586,-4.92188 9.92382,-6.63281 3.73075,-1.90083 4.85141,-2.17758 8.8125,-2.17187 6.9449,0.01 11.22297,1.81361 12.75586,5.37695 0.7687,1.78688 0.86584,4.43419 0.20899,5.6914 -1.19339,2.2841 -4.72944,4.45307 -9.58789,5.88282 -3.43212,1.01001 -8.83355,1.26759 -11.4961,0.54687 -2.36803,-0.64099 -3.48047,-1.64263 -3.48046,-3.13476 0,-0.59681 0.20611,-1.37808 0.45703,-1.73633 0.87062,-1.24298 4.03513,-2.86663 4.01953,-2.0625 -0.002,0.11545 -0.19264,0.74821 -0.42188,1.40625 -0.3624,1.0404 -0.36525,1.31931 -0.0195,2.14648 0.62488,1.49551 1.61379,1.97461 4.07227,1.97461 1.76452,0 2.38761,-0.1346 3.79101,-0.81836 2.19478,-1.06938 5.30563,-4.19062 6.56055,-6.58203 1.69006,-3.22058 1.2218,-5.08211 -1.61524,-6.41211 -1.45873,-0.68387 -1.86732,-0.74156 -5.08593,-0.72851 -3.07751,0.0125 -3.76822,0.10678 -5.73438,0.78906 -4.22232,1.46532 -8.60664,4.10714 -12.49219,7.52734 -4.47486,3.93894 -7.3212,9.44301 -5.63671,10.90039 0.64928,0.56173 1.99956,0.8709 8.28711,1.89063 11.51538,1.86763 22.57421,4.71065 22.57421,5.80273 0,0.53209 -5.30608,3.04966 -9.9375,4.71485 -7.75197,2.78716 -16.27046,4.53681 -26.5039,5.44531 -8.46025,0.75109 -26.18628,1.01161 -37.60156,0.55273 -10.36033,-0.41647 -22.77183,-2.18836 -26.630864,-3.80078 -1.491348,-0.62312 -1.224962,-1.24447 1.109375,-2.58008 8.772849,-5.01943 23.473119,-9.1365 39.658199,-11.10937 2.29069,-0.27922 4.10849,-0.65098 4.61524,-0.94141 1.02713,-0.58864 1.66254,-2.18209 2.2793,-5.72461 0.7538,-4.32976 0.20578,-7.76921 -1.55469,-9.74804 -1.69621,-1.90658 -2.03021,-1.91066 -16.39649,-0.21485 -2.77135,0.32714 -6.73985,0.61316 -8.81836,0.63672 -4.28465,0.0485 -5.74223,-0.31883 -7.16015,-1.80273 -0.76552,-0.80113 -0.81585,-0.9915 -0.78711,-3.00391 0.0453,-3.17706 1.13774,-6.92768 3.86133,-13.26561 l 0.44726,-1.04102 -3.15039,-1.51172 c -3.88236,-1.86379 -5.22362,-2.99895 -6.42578,-5.4414 -2.9086,-5.90943 1.09396,-11.574 10.05469,-14.22657 2.97721,-0.88132 8.99218,-1.23865 11.61914,-0.6914 2.44967,0.51031 4.70108,1.77494 6.48437,3.64453 3.31695,3.47746 4.62651,8.21798 3.26563,11.82422 -0.69353,1.83782 -2.62311,4.12564 -4.31836,5.11914 -1.57616,0.92368 -4.34437,1.53407 -6.9707,1.53906 -1.19817,0.002 -2.59007,0.17708 -3.0918,0.38672 -1.34075,0.5602 -4.01385,3.66823 -5.08789,5.916 -1.18087,2.47133 -1.45424,4.17302 -0.88672,5.53125 1.00044,2.39438 3.65324,2.44768 13.20508,0.26368 10.39266,-2.37626 13.39433,-2.8586 17.72461,-2.84766 3.11944,0.007 4.83899,0.33673 5.9707,1.14258 1.43559,1.02224 1.21172,1.97776 -3.10742,13.22265 -1.25648,3.27129 -1.3428,4.19389 -0.40235,4.32813 0.78835,0.11251 1.65013,-1.26627 4.81836,-7.70703 5.57347,-11.33035 9.6298,-22.10872 11.23633,-29.86327 l 0.86328,-4.17383 -0.63671,-0.68359 c -1.38696,-1.48658 -3.52142,-2.10451 -8.47461,-2.45313 -3.52154,-0.24783 -7.60014,-0.90867 -8.48829,-1.375 -1.24848,-0.65552 -2.77678,-2.44586 -3.57031,-4.18359 -0.67342,-1.4747 -0.73327,-1.85063 -0.56836,-3.62501 0.37055,-3.98705 3.1287,-10.62038 6.86719,-16.52149 0.96038,-1.51593 1.81303,-3.17713 1.89648,-3.6914 0.19485,-1.20061 -0.58924,-1.9639 -3.6582,-3.560548 -2.56002,-1.33187 -5.4019,-3.795321 -5.14648,-4.460938 0.0909,-0.237029 1.40397,-0.908587 2.91797,-1.492187 3.57188,-1.376861 21.69496,-8.91928 25.8164,-10.744141 1.75383,-0.776544 3.31016,-1.336121 3.45899,-1.244141 z m -0.60938,0.970704 -3.71875,1.630859 c -4.71055,2.065322 -22.7435,9.526861 -25.06445,10.371094 -0.96228,0.350015 -1.75,0.733224 -1.75,0.853515 0,0.375581 3.41549,2.806863 5.17773,3.685547 2.46257,1.227896 3.5,2.310686 3.5,3.652346 0,1.25343 -0.0605,1.38364 -2.38086,5.10546 -3.4589,5.54788 -6.03234,11.65225 -6.46484,15.33204 -0.25061,2.13236 0.39852,3.8078 2.21875,5.73243 1.79589,1.89887 3.03159,2.22965 10.73828,2.86328 2.02949,0.16685 4.27038,0.47769 4.98047,0.6914 1.57948,0.47535 3.78516,2.2188 3.78516,2.99219 0,1.12924 -1.96832,9.52097 -2.95704,12.60547 -2.19698,6.85386 -7.49023,19.21237 -11.08984,25.89452 -2.04156,3.78987 -2.47506,4.29297 -3.70508,4.29297 -2.1295,0 -2.05266,-1.45408 0.40235,-7.69726 0.96869,-2.46343 2.11424,-5.55068 2.54687,-6.85938 l 0.78711,-2.37891 -0.69141,-0.61718 c -1.00521,-0.89818 -2.42486,-1.19943 -5.66015,-1.20118 -4.27778,-0.002 -7.22341,0.49448 -19.10352,3.2168 -5.46774,1.25293 -9.24479,1.54967 -10.73242,0.84375 -1.17271,-0.55649 -1.58698,-1.1732 -1.88867,-2.80273 -0.479,-2.58729 1.05277,-6.50636 3.70703,-9.48438 1.94966,-2.18747 2.52958,-2.42797 6.50586,-2.70116 3.90645,-0.26838 5.35721,-0.69951 7.30859,-2.17383 1.04369,-0.78853 1.67202,-1.58892 2.47461,-3.14648 1.00233,-1.9452 1.06897,-2.22402 0.97071,-4.04883 -0.25318,-4.70214 -3.94594,-9.32115 -8.65039,-10.82031 -2.11715,-0.67467 -6.68241,-0.80242 -9.35157,-0.26172 -8.11278,1.64344 -13.15022,5.67436 -13.14648,10.52148 0.002,3.48031 2.42734,6.23245 7.45703,8.46289 2.12462,0.94218 3.0156,1.47747 3.02148,1.81641 0.005,0.26438 -0.63055,2.02684 -1.41015,3.91796 -1.7522,4.25046 -2.73093,7.55959 -2.95703,9.99219 -0.16208,1.74397 -0.12556,1.91858 0.59375,2.77343 2.03584,2.41947 4.58599,2.51629 19.45703,0.74024 6.48999,-0.7751 10.2125,-0.87397 11.57031,-0.30664 2.30765,0.9642 3.38625,3.67603 3.35352,8.43554 -0.0219,3.19903 -0.52991,6.02221 -1.46094,8.12696 -0.68977,1.55936 -1.65932,1.89749 -7.58399,2.64648 -12.30806,1.55598 -23.89682,4.4393 -32.10156,7.98828 -3.50336,1.51539 -7.089843,3.42446 -7.089842,3.77344 0,0.2578 1.835912,0.84148 4.765622,1.51562 3.89154,0.89548 15.192,2.22662 21.12891,2.48829 4.8724,0.21474 24.34928,0.15906 29.5332,-0.084 14.89776,-0.69847 24.82595,-2.43393 34.71289,-6.07031 4.0458,-1.48802 8.39649,-3.43004 8.39649,-3.74609 0,-0.76328 -11.1908,-3.43761 -21.5293,-5.14454 -7.29331,-1.20414 -8.0254,-1.39612 -8.59766,-2.26953 -0.99469,-1.51807 0.0199,-5.09636 2.28907,-8.06836 l 0.99023,-1.29492 h -0.8418 c -0.91838,0 -1.42382,-0.61803 -1.42382,-1.74414 0,-1.17243 4.95547,-8.54292 10.76757,-16.01562 6.78986,-8.72982 8.15543,-9.18829 17.96485,-6.02343 2.70126,0.87151 4.79534,1.3864 5.63086,1.38475 1.67071,-0.004 3.27487,-0.89822 6.46875,-3.60936 1.28693,-1.09242 2.55399,-1.98633 2.8164,-1.98633 0.26241,0 0.84662,0.38895 1.29883,0.86524 0.4522,0.4763 1.41249,1.36219 2.13281,1.96875 l 1.3086,1.10351 4.00976,-1.5293 c 7.87674,-3.00529 12.72185,-5.31124 14.63477,-6.96484 l 1.0625,-0.91797 -1.68164,-3.23242 c -2.98973,-5.75265 -9.25949,-16.37966 -11.17774,-18.94337 l -0.68554,-0.91406 -1.88282,0.99023 c -4.23253,2.22413 -14.96634,9.4132 -17.6582,11.82814 l -1.52148,1.36523 1.52148,2.15039 c 2.95197,4.16932 3.3418,4.93165 3.3418,6.53906 0,1.24143 -0.13307,1.62505 -0.85156,2.44336 -0.46866,0.53378 -1.44537,1.26078 -2.16993,1.61524 -1.52606,0.74658 -4.19185,0.83585 -11.96679,0.40234 -6.32685,-0.35275 -6.3407,-0.3438 -12.42578,7.64452 -1.88109,2.46946 -3.99658,5.12864 -4.69922,5.91016 -1.14053,1.26854 -1.38492,1.41143 -2.2793,1.33594 -0.86078,-0.0727 -1.03785,-0.21171 -1.25977,-0.99024 -0.31534,-1.10635 -0.10232,-1.7077 3.06446,-8.65819 4.51675,-9.91337 6.22808,-14.90955 6.47851,-18.91602 0.14322,-2.29145 0.10788,-2.51622 -0.5664,-3.53515 -0.79113,-1.19548 -2.62878,-2.78872 -4.04883,-3.50978 -0.77831,-0.39522 -1.80008,-0.45206 -6.99805,-0.39453 -7.19243,0.0795 -8.63665,-0.19338 -10.15429,-1.92187 l -0.90626,-1.03321 0.16211,-2.95703 c 0.17306,-3.18422 1.61323,-10.74265 2.30079,-12.07226 0.9505,-1.83806 2.84694,-2.03467 10.14257,-1.05079 2.83362,0.38214 4.6463,0.5154 4.80469,0.35157 0.38987,-0.40324 0.8146,-4.81099 1.27734,-13.281249 0.23132,-4.23401 0.48731,-8.098875 0.57032,-8.589844 z m 20.97461,81.568361 c -0.51513,-0.13513 -0.41085,-0.004 0.39063,0.49804 1.42417,0.89171 1.82778,1.6805 1.83984,3.5918 0.0266,4.21068 -5.2276,10.16894 -9.84961,11.16992 -1.16607,0.25255 -1.15755,0.25771 0.3418,0.13281 0.84679,-0.0705 2.29496,-0.32436 3.21875,-0.5625 5.91426,-1.52458 9.7483,-4.13754 10.35351,-7.05859 0.2816,-1.35919 -0.5425,-3.82387 -1.71093,-5.11719 -0.93704,-1.03719 -3.02463,-2.24521 -4.58399,-2.65429 z m -14.97656,10.10546 -1.01563,0.89649 c -1.26777,1.11572 -1.46639,1.80745 -0.76953,2.69336 0.67356,0.85629 3.10191,1.81119 4.58594,1.80469 l 1.11914,-0.004 -1.28125,-0.39453 c -1.8071,-0.55676 -2.33034,-1.24533 -2.49805,-3.28906 z m 4.41601,5.51563 c -0.27237,0.071 -0.11812,0.13296 0.34375,0.13867 0.46189,0.006 0.68563,-0.0522 0.4961,-0.12891 -0.18952,-0.0767 -0.56748,-0.0812 -0.83985,-0.01 z m -76.96093,4.74609 c 0.59991,-0.0389 1.00517,-0.0324 1.16601,0.0293 0.80952,0.31065 0.26632,0.57847 -4.0625,2 -12.279835,4.03256 -22.05013,9.23547 -25.216795,13.42969 -1.910534,2.53048 -2.341092,4.13626 -2.326172,8.68164 0.01402,4.27114 0.380801,6.88972 1.960938,13.99609 3.320159,14.93179 9.600258,26.1471 21.093749,37.67188 7.10569,7.12502 14.07317,12.40753 23.05274,17.47656 4.2754,2.4135 3.91318,2.99072 -1.06836,1.69922 -6.76953,-1.75504 -16.17365,-6.52855 -22.95508,-11.65235 -14.415987,-10.89222 -29.288453,-32.12055 -33.986331,-48.50976 -4.953013,-17.27931 -0.243371,-24.95695 18.625,-30.36719 5.805107,-1.66453 19.517381,-4.1825 23.716801,-4.45508 z m -4.15625,1.33985 c -0.15396,-0.007 -2.4831,0.36847 -5.17579,0.83398 -22.342842,3.8626 -31.760908,8.97938 -33.732417,18.32813 -0.525471,2.49174 -0.524595,3.72234 0.0059,7.29492 2.584198,17.40367 18.655295,42.26373 35.542967,54.98047 4.46298,3.3607 10.60938,6.90301 15.81641,9.11523 2.32028,0.98577 6.17245,2.336 6.71875,2.35547 0.23095,0.009 -0.92006,-0.78815 -2.55664,-1.77149 -18.6303,-11.19395 -32.58446,-26.81924 -38.708987,-43.34374 -1.20833,-3.2602 -2.952907,-9.9043 -3.916015,-14.91407 -1.719923,-8.94646 -1.568642,-14.64587 0.480469,-18.13086 2.585878,-4.39787 10.890708,-9.40482 22.445313,-13.5332 1.84757,-0.66012 3.23405,-1.20725 3.08008,-1.21484 z m 120.16601,3.98047 c 5.69123,0.20918 11.06759,2.39128 14.2793,5.89843 1.73817,1.89807 3.37543,4.55351 3.88281,6.29883 1.02643,3.53078 0.93381,9.45806 -0.19336,12.4707 -0.85338,2.28088 -3.17723,5.62373 -4.80469,6.91016 -0.76509,0.60478 -1.50634,1.09961 -1.64648,1.09961 -0.47271,0 -0.25949,-0.82464 0.56055,-2.16602 1.80612,-2.95432 2.21037,-6.66052 0.99804,-9.17187 -1.80639,-3.74194 -6.89112,-6.06117 -13.42968,-6.12695 -2.65539,-0.0267 -3.23362,0.0507 -4.19922,0.57031 -2.88796,1.55422 -3.80712,3.82998 -5.89649,14.59765 -0.70823,3.64995 -1.70913,8.27385 -2.22461,10.27539 -5.98917,23.25495 -18.74031,39.05056 -38.28711,47.4336 -3.14129,1.3472 -4.40039,1.68725 -4.40039,1.1875 0,-0.1246 1.92667,-2.06111 4.28125,-4.30469 20.03969,-19.09502 30.46329,-40.47405 32.56641,-66.79101 l 0.18555,-2.32032 -1.08985,0.14844 c -3.18968,0.43567 -12.42709,1.63587 -15.22851,1.97852 -4.84399,0.59246 -14.21694,0.96985 -24.09766,0.9707 -7.63549,5.8e-4 -8.8418,-0.0549 -8.8418,-0.41406 0,-0.46943 -0.16515,-0.43531 6.625,-1.42578 13.67323,-1.99451 24.51963,-5.18141 39.89258,-11.72657 9.85815,-4.19718 12.5422,-4.97032 18.61524,-5.35937 0.82045,-0.0526 1.64009,-0.0631 2.45312,-0.0332 z m -1.05469,0.92773 c -6.52547,0.0364 -8.79349,0.63644 -19.16406,5.07227 -14.75872,6.31277 -25.92784,9.66478 -39.3418,11.80859 -1.13702,0.18173 0.18086,0.25559 5.03907,0.2793 7.42614,0.0362 15.72175,-0.36013 20.29492,-0.96875 10.3856,-1.38218 16.45224,-2.09463 16.59766,-1.94922 0.22339,0.22338 -0.41432,7.22746 -1.0586,11.61718 -3.13736,21.37627 -12.91351,40.16029 -29.4707,56.62696 -2.60504,2.59078 -4.13489,4.294 -3.71094,4.13281 0.39666,-0.1508 2.07146,-0.95243 3.72266,-1.78125 7.0012,-3.51427 12.21358,-7.28135 17.16015,-12.40234 9.94905,-10.29987 16.03753,-23.57659 19.6836,-42.92578 1.31317,-6.96878 1.46823,-7.64638 2.30664,-10.09571 0.95201,-2.78119 2.2127,-4.48973 3.92969,-5.32812 1.19969,-0.58579 1.71866,-0.6579 4.57226,-0.62891 3.93209,0.04 6.78681,0.61893 9.39453,1.90234 4.92064,2.42173 6.78732,6.73218 5.17578,11.95704 l -0.54882,1.77343 0.81054,-0.97851 c 1.15089,-1.39376 2.51919,-3.7158 2.98047,-5.05469 1.07717,-3.12652 1.12019,-7.9817 0.0996,-11.26367 -1.10206,-3.54422 -4.61429,-7.57457 -8.26367,-9.48438 -3.59534,-1.88155 -5.60041,-2.33429 -10.20899,-2.30859 z"
       sodipodi:nodetypes="ccssccssscsssssscsssscsssssssscccsssssssssssssscscssssscsssssssssssssscsccccsssssscsssscsssscccssssssscssccccsssscsssssssssccccsssssssssscscssssscsssssssssssccsssscsssccccccccccccsssssscsssssccccssssccscsssssssccscccccccsccscsssssssssssssscssccsssssscsssssssscssssscccscsssscsssssssssssssssscccscsss" />
    <path
       style="opacity:1;fill:#f8d822;fill-opacity:1;stroke:none;stroke-width:0.593436;stroke-opacity:1"
       d="m 176.9435,82.293413 c -5.0303,1.748237 -9.84987,4.144092 -14.82321,6.078715 -4.952,2.208825 -10.15121,3.906941 -14.97665,6.371843 -0.87276,1.296982 1.31538,2.065634 2.08746,2.78173 1.87589,1.521826 4.63711,2.139644 5.86771,4.334279 0.17606,2.56943 -1.92867,4.64385 -2.94663,6.85371 -2.56889,4.82927 -5.46603,9.84202 -5.83436,15.4123 0.51942,3.95414 4.11637,7.17691 8.12039,7.27112 3.85191,0.78454 8.01594,0.30898 11.63105,2.01116 1.25004,0.69489 2.4025,1.52356 1.74611,3.10743 -2.17652,12.84786 -7.77859,24.89612 -13.50655,36.5758 -0.95251,1.41451 -1.4164,3.5857 -3.07256,4.2965 -1.2683,0.28093 -1.40536,-0.62361 -1.17354,-1.73858 0.81222,-5.00039 3.83022,-9.40544 4.58348,-14.41458 -0.56829,-2.23536 -3.50802,-2.28755 -5.37511,-2.31347 -9.87206,-0.40235 -19.16555,3.89224 -28.95143,4.2885 -1.72316,0.1687 -3.37987,-1.05182 -3.35547,-2.87388 -0.21489,-4.31481 2.33236,-8.41547 5.75876,-10.85511 3.96245,-1.28045 8.92158,-0.20015 12.07445,-3.5357 2.72676,-2.51611 4.02726,-6.66639 2.34535,-10.1255 -1.81471,-4.60267 -6.10686,-8.35903 -11.19706,-8.55882 -5.94749,-0.67273 -12.33546,1.01744 -16.91116,4.9449 -2.93731,2.40466 -4.24714,6.96592 -1.90954,10.21879 2.05365,3.23648 5.94623,4.33292 9.03134,6.26353 -1.33875,5.04091 -4.13561,9.91364 -4.25894,15.25199 0.60648,2.63794 3.51214,3.9739 6.04095,3.69162 8.21182,0.14077 16.29942,-1.76517 24.47868,-1.66791 3.12483,0.0982 4.35568,3.497 4.32626,6.13989 0.19817,3.65733 0.15321,7.70097 -1.8314,10.89125 -2.99582,1.4373 -6.44581,1.36555 -9.6671,2.01313 -12.21882,1.93311 -24.61059,4.66336 -35.491957,10.7637 -1.247149,0.67357 -0.27191,2.09243 0.842057,2.11296 9.19662,2.32205 18.72857,3.13446 28.18928,3.428 12.63149,0.12058 25.31488,0.22734 37.89186,-1.10468 10.6958,-1.36925 21.47253,-3.73213 31.06207,-8.83083 0.95934,-1.30343 -1.38167,-1.47949 -2.24567,-1.88694 -8.7406,-2.61834 -17.85183,-3.63798 -26.71098,-5.71008 -1.98456,-0.83192 -0.83599,-3.64955 -0.31005,-5.09636 0.45335,-1.67664 2.1509,-2.87302 2.3581,-4.57015 -0.26632,-0.9531 -2.08608,-0.0914 -1.65919,-1.48127 1.02644,-3.75303 3.85903,-6.68892 5.92812,-9.90007 3.30412,-4.24354 6.20482,-8.95163 10.34848,-12.44533 3.21064,-2.34603 7.42676,-0.62912 10.86671,0.19008 2.62881,0.50001 5.31835,2.06936 8.03514,1.44882 2.94929,-1.24461 5.22137,-3.60778 7.89838,-5.28761 1.76017,1.01788 2.97731,3.01153 4.81949,3.76555 6.17364,-2.28706 12.49416,-4.58315 18.14021,-8.0552 1.30311,-0.79559 2.55067,-2.06471 1.08911,-3.44243 -3.96175,-7.29599 -8.05535,-14.53342 -12.65647,-21.44942 -1.32279,-0.59266 -2.67958,1.00869 -3.95945,1.45975 -6.20071,3.67534 -12.22912,7.69457 -17.78093,12.30112 -0.44508,1.4469 1.46874,2.61857 1.98894,3.93789 1.14187,2.02077 3.34634,4.36128 2.22712,6.81234 -2.09084,3.20956 -6.36668,2.56772 -9.64908,2.64299 -3.44199,0.15622 -7.01487,-0.6427 -10.38343,0.20712 -3.91689,2.68502 -6.27973,7.02289 -9.36413,10.54204 -1.32038,1.32018 -2.31092,3.42762 -4.18811,3.96236 -1.64572,-0.44938 -0.63357,-2.523 -0.17126,-3.52157 2.96269,-7.61471 7.22549,-14.85519 8.65555,-22.98122 0.0328,-1.93782 1.1563,-4.37422 -0.793,-5.70698 -1.51277,-2.00994 -3.66452,-3.6701 -6.30292,-3.56878 -4.37424,-0.44371 -8.92331,0.2685 -13.18638,-0.96172 -1.24272,-0.59168 -2.53916,-1.8116 -2.07412,-3.30157 0.42474,-4.52464 0.8582,-9.15379 2.4682,-13.41489 1.32643,-1.80718 3.97553,-0.92757 5.88323,-1.01806 2.85987,0.0458 5.73149,0.917 8.57597,0.57067 1.12712,-1.42531 0.74369,-3.61012 1.09366,-5.33351 0.38289,-5.790171 0.97968,-11.606644 0.94106,-17.400756 -0.18818,-0.217785 -0.35377,-0.445421 -0.67689,-0.390601 z"
       id="path9" />
    <path
       style="opacity:1;fill:#f8d822;fill-opacity:1;stroke:none;stroke-width:0.593436;stroke-opacity:1"
       d="m 199.86263,164.10872 c -1.48507,0.42372 0.10521,1.60825 0.20863,2.42763 0.72502,4.81858 -3.09338,8.77659 -6.83784,11.18603 -0.96029,0.20091 -1.42916,1.86567 -0.10605,1.72815 4.29636,-0.99728 9.08238,-2.56871 11.6114,-6.44607 1.7363,-3.57149 -1.36345,-7.97795 -4.87614,-8.89574 z"
       id="path10" />
    <path
       style="opacity:1;fill:#f8d822;fill-opacity:1;stroke:none;stroke-width:0.179574;stroke-opacity:1"
       d="m 183.26675,173.51942 c -0.83173,0.71466 -1.74207,1.43552 -2.30062,2.40268 -0.58639,1.17132 0.45831,2.37054 1.46886,2.86722 1.29544,0.65345 2.73903,1.22908 4.2128,1.12339 0.68739,0.0813 0.97405,-0.95705 0.31425,-1.2023 -0.91353,-0.40658 -2.19567,-0.59515 -2.4844,-1.73278 -0.34766,-1.03117 -0.22876,-2.15965 -0.50078,-3.19194 -0.11331,-0.26389 -0.45334,-0.32571 -0.71011,-0.26627 z"
       id="path11" />
    <path
       style="opacity:1;fill:#f8d822;fill-opacity:1;stroke:none;stroke-width:0.0665281;stroke-opacity:1"
       d="m 192.19151,178.14505 c -0.48804,0.14736 -0.96919,0.3318 -1.46934,0.44451 -0.34683,0.0915 -0.81088,0.11478 -0.95403,0.51139 -0.17321,0.4099 0.21848,0.88075 0.65264,0.82288 0.68861,-0.0418 1.38222,-0.0918 2.05964,-0.2244 0.34817,-0.10329 0.49146,-0.49489 0.42412,-0.82829 0.0184,-0.39431 -0.2985,-0.77546 -0.71303,-0.72609 z"
       id="path12" />
    <path
       style="opacity:1;fill:#f8d822;fill-opacity:1;stroke:none;stroke-width:0.0665281;stroke-opacity:1"
       d="m 188.32683,178.89453 c -0.37963,0.005 -0.87745,0.0497 -1.02205,0.46854 -0.1697,0.40983 0.20198,0.86516 0.62984,0.84714 0.40038,-6.3e-4 0.84083,0.0782 1.2066,-0.12305 0.36932,-0.2239 0.36542,-0.82041 -0.011,-1.03535 -0.23969,-0.14529 -0.53027,-0.16009 -0.80336,-0.15728 z"
       id="path13" />
    <path
       style="opacity:1;fill:#f8d822;fill-opacity:1;stroke:none;stroke-width:0.0665281;stroke-opacity:1"
       d="m 198.23634,163.26607 c -0.47241,-0.0134 -0.78028,0.58374 -0.5015,0.96265 0.28997,0.34642 0.71074,0.5521 1.08252,0.79905 0.3206,0.22502 0.83055,0.12607 0.9796,-0.25507 0.30371,-0.22 0.38855,-0.70785 0.088,-0.96348 -0.30415,-0.23072 -0.69883,-0.30429 -1.05601,-0.42653 -0.19429,-0.0509 -0.38998,-0.11512 -0.59264,-0.11662 z"
       id="path14" />
    <path
       style="opacity:1;fill:#f8d822;fill-opacity:1;stroke:none;stroke-width:0.218349;stroke-opacity:1"
       d="m 225.34434,189.98763 c -3.35005,-0.002 -6.72521,0.3947 -9.88329,1.55823 -6.30801,2.25 -12.3648,5.13975 -18.6494,7.45361 -9.57391,3.68295 -19.58059,6.25067 -29.70947,7.8944 -0.80213,0.17514 -0.47408,1.36679 0.29454,1.19956 6.03723,0.2569 12.08497,0.0529 18.11801,-0.22049 7.82707,-0.4195 15.53951,-1.91124 23.33703,-2.55804 -0.54515,10.16909 -2.3679,20.43949 -5.93511,30.07803 -4.93555,13.54008 -13.15161,25.67635 -23.21772,35.95187 -1.5046,1.60458 -3.13013,3.11782 -4.5636,4.77541 -0.40392,0.69539 0.51661,1.07348 1.08909,0.90303 1.52802,-0.34342 2.85549,-1.26573 4.25877,-1.9305 6.86234,-3.58053 13.13255,-8.34983 18.16602,-14.24915 7.4007,-8.43752 12.07982,-18.91103 15.02276,-29.65752 1.71059,-5.97144 2.66303,-12.12088 3.99268,-18.17373 0.65132,-2.5155 1.3985,-5.28681 3.3641,-7.14816 1.0581,-1.0109 2.6043,-1.38374 3.98295,-1.31734 3.55828,-0.0705 7.22145,0.16425 10.51677,1.75233 2.76644,1.27238 5.16921,3.78356 5.4794,6.92149 0.28713,2.00583 -0.33728,3.97077 -0.85911,5.87558 10e-4,0.7317 1.00561,0.77888 1.30199,0.20726 2.11763,-2.59253 3.90776,-5.6625 4.0902,-9.08219 0.24561,-3.4421 0.16957,-7.09361 -1.53719,-10.19284 -2.34316,-4.36651 -6.43542,-7.73447 -11.15979,-9.22549 -2.39653,-0.86657 -4.99026,-0.78189 -7.49963,-0.81535 z"
       id="path16" />
    <path
       style="opacity:1;fill:#f8d822;fill-opacity:1;stroke:none;stroke-width:0.426069;stroke-opacity:1"
       d="m 105.14501,185.39078 c -9.113653,1.45846 -18.362237,3.13247 -26.79866,7.02681 -4.974526,2.28966 -9.632125,6.29785 -10.814081,11.87539 -1.109824,4.70293 0.156305,9.55523 1.333431,14.11888 3.848848,12.52207 10.837177,23.88584 19.028863,34.02434 6.084976,7.21751 12.901487,13.97184 21.047957,18.84706 4.91878,2.96436 10.09468,5.63313 15.6086,7.28931 0.97281,0.40485 1.5189,-1.05198 0.51136,-1.37849 -13.6809,-8.20102 -26.116276,-19.07007 -34.443173,-32.79012 -3.725013,-6.06182 -6.288799,-12.71823 -7.852979,-19.65589 -1.507354,-6.4784 -3.099631,-12.9688 -2.421948,-19.66242 0.248075,-3.09068 1.915191,-5.89251 4.319774,-7.80364 5.81863,-4.84143 13.152273,-7.66093 20.164216,-10.40748 0.85105,-0.10995 1.62729,-1.312 0.31664,-1.48375 z"
       id="path17"
       inkscape:export-filename="caffeinated-tech.svg"
       inkscape:export-xdpi="96"
       inkscape:export-ydpi="96" />
  </g>
</svg>
